<svg xmlns="http://www.w3.org/2000/svg" width="250" height="127" viewBox="0 0 250 127">
<g>
<path d="M 231.75,0.50 L 231.85,0.76 L 231.90,0.92 L 232.04,1.45 L 232.18,2.04 L 232.58,3.86 L 232.79,4.85 L 233.27,7.26 L 233.52,8.50 L 234.03,11.19 L 234.28,12.54 L 234.76,15.20 L 235.00,16.50 L 235.39,18.85 L 235.58,19.95 L 235.83,21.68 L 235.89,22.06 L 235.96,22.65 L 236.00,23.24 L 236.00,23.82 L 235.81,24.53 L 235.37,24.70 L 235.13,24.47 L 234.28,24.52 L 233.82,24.61 L 232.84,25.11 L 232.38,25.39 L 231.71,26.09 L 231.53,27.05 L 231.69,27.31 L 232.52,27.72 L 234.08,28.00 L 234.43,28.00 L 235.03,28.13 L 235.32,28.23 L 235.83,28.67 L 236.09,28.94 L 236.57,29.85 L 236.81,30.38 L 237.29,31.91 L 237.54,32.76 L 238.07,35.07 L 238.35,36.33 L 238.98,39.57 L 239.15,40.44 L 239.51,42.39 L 239.69,43.40 L 240.09,45.63 L 240.29,46.79 L 240.73,49.33 L 241.45,53.50 L 241.95,56.39 L 242.89,61.83 L 243.11,63.14 L 243.54,65.61 L 243.75,66.80 L 244.14,68.99 L 244.32,70.05 L 244.65,71.90 L 244.81,72.77 L 245.07,74.22 L 245.19,74.89 L 245.37,75.87 L 245.54,76.75 L 245.68,77.37 L 245.67,78.34 L 245.27,79.01 L 245.22,79.01 L 244.55,79.11 L 244.12,79.18 L 242.77,79.40 L 242.01,79.53 L 240.06,79.86 L 239.01,80.04 L 236.53,80.47 L 235.23,80.69 L 232.30,81.20 L 230.79,81.47 L 227.50,82.05 L 216.60,83.97 L 212.77,84.66 L 205.71,85.86 L 204.02,86.15 L 200.89,86.66 L 199.38,86.90 L 196.66,87.33 L 195.36,87.53 L 193.13,87.86 L 192.08,88.02 L 190.41,88.24 L 189.65,88.33 L 188.63,88.43 L 187.89,88.43 L 187.67,88.30 L 186.79,88.38 L 185.29,88.95 L 185.24,88.98 L 184.67,89.12 L 184.31,89.20 L 183.15,89.44 L 182.50,89.58 L 180.80,89.91 L 179.89,90.09 L 177.68,90.51 L 176.51,90.73 L 173.83,91.24 L 172.44,91.50 L 169.33,92.07 L 167.73,92.37 L 164.24,93.01 L 162.44,93.34 L 158.60,94.04 L 156.64,94.40 L 152.49,95.16 L 150.37,95.54 L 145.95,96.34 L 141.47,97.15 L 131.86,98.87 L 126.97,99.75 L 116.79,101.57 L 111.66,102.48 L 101.23,104.33 L 96.01,105.25 L 85.64,107.08 L 80.50,107.99 L 70.51,109.74 L 65.59,110.60 L 56.30,112.22 L 54.03,112.61 L 49.68,113.37 L 47.55,113.74 L 43.48,114.44 L 41.49,114.78 L 37.75,115.42 L 35.92,115.73 L 32.54,116.31 L 30.89,116.59 L 27.91,117.09 L 26.48,117.33 L 23.94,117.75 L 22.72,117.95 L 20.66,118.28 L 19.69,118.43 L 18.15,118.67 L 17.45,118.78 L 16.47,118.92 L 15.66,119.00 L 15.20,119.00 L 14.47,118.93 L 14.15,118.88 L 13.92,118.75 L 13.63,117.78 L 13.18,115.58 L 12.98,114.49 L 12.76,112.41 L 12.68,111.44 L 12.74,109.98 L 12.77,109.67 L 12.89,109.26 L 13.16,109.00 L 13.43,109.00 L 13.39,108.54 L 12.57,107.43 L 12.14,107.00 L 11.42,105.39 L 10.87,102.68 L 10.83,101.73 L 10.75,100.34 L 10.72,99.95 L 10.60,99.01 L 10.52,98.49 L 10.30,97.09 L 10.17,96.32 L 9.79,94.24 L 9.59,93.10 L 9.03,90.10 L 8.87,89.28 L 8.53,87.43 L 8.35,86.46 L 7.94,84.30 L 7.73,83.18 L 7.25,80.67 L 6.47,76.50 L 6.31,75.67 L 5.96,73.79 L 5.55,71.50 L 5.50,71.22 L 5.36,70.45 L 5.29,70.03 L 5.11,69.06 L 4.55,66.00 L 4.35,64.93 L 3.92,62.49 L 3.69,61.23 L 3.22,58.55 L 2.75,55.85 L 1.84,50.51 L 1.63,49.24 L 1.25,46.94 L 1.07,45.85 L 0.78,44.04 L 0.65,43.21 L 0.48,42.07 L 0.40,41.32 L 0.43,41.28 L 0.71,41.18 L 0.89,41.13 L 1.46,40.98 L 2.09,40.82 L 4.04,40.41 L 5.10,40.20 L 7.70,39.70 L 9.05,39.45 L 12.00,38.92 L 13.49,38.65 L 16.49,38.14 L 17.96,37.89 L 20.71,37.46 L 22.03,37.25 L 24.23,36.94 L 26.60,36.67 L 28.00,36.57 L 30.55,36.20 L 31.12,36.09 L 32.03,35.88 L 32.90,35.56 L 32.98,35.51 L 33.37,35.37 L 33.60,35.30 L 34.25,35.13 L 34.96,34.94 L 37.04,34.49 L 38.16,34.25 L 40.86,33.74 L 45.30,32.96 L 46.84,32.71 L 50.32,32.12 L 52.09,31.82 L 55.71,31.19 L 57.49,30.88 L 60.82,30.30 L 65.00,29.55 L 66.17,29.34 L 68.81,28.87 L 70.16,28.64 L 72.91,28.17 L 74.27,27.94 L 76.81,27.52 L 80.00,27.02 L 80.89,26.88 L 83.19,26.51 L 84.40,26.32 L 87.09,25.86 L 88.45,25.63 L 91.19,25.16 L 95.00,24.47 L 97.34,24.04 L 102.77,23.08 L 104.08,22.84 L 106.50,22.43 L 109.50,21.92 L 110.32,21.78 L 112.67,21.38 L 113.94,21.16 L 116.88,20.63 L 126.21,18.93 L 127.68,18.66 L 130.67,18.12 L 132.14,17.86 L 134.89,17.38 L 136.20,17.16 L 138.39,16.80 L 140.71,16.45 L 141.23,16.38 L 142.85,16.14 L 143.74,16.00 L 145.88,15.66 L 153.00,14.43 L 155.34,14.01 L 160.47,13.10 L 161.70,12.89 L 163.89,12.51 L 166.50,12.07 L 167.19,11.96 L 169.15,11.62 L 170.21,11.43 L 172.67,11.00 L 180.50,9.57 L 182.99,9.11 L 188.41,8.11 L 191.16,7.61 L 196.87,6.57 L 199.73,6.05 L 205.40,5.03 L 208.19,4.53 L 213.49,3.59 L 216.07,3.13 L 220.67,2.32 L 221.76,2.13 L 223.76,1.78 L 224.72,1.62 L 226.43,1.32 L 227.25,1.18 L 228.63,0.95 L 229.27,0.84 L 230.28,0.68 L 230.74,0.61 L 231.34,0.52 L 231.73,0.48 M 223.61,9.52 L 223.54,9.53 L 223.12,9.62 L 222.86,9.67 L 222.08,9.81 L 221.64,9.89 L 220.53,10.09 L 219.93,10.20 L 218.49,10.46 L 217.74,10.59 L 216.01,10.90 L 215.10,11.06 L 213.09,11.42 L 211.02,11.78 L 206.11,12.65 L 203.55,13.10 L 197.78,14.12 L 194.80,14.64 L 188.33,15.77 L 185.02,16.35 L 177.99,17.58 L 167.00,19.49 L 163.25,20.15 L 155.99,21.41 L 152.41,22.03 L 145.60,23.22 L 142.27,23.80 L 136.07,24.88 L 133.06,25.41 L 127.63,26.36 L 125.02,26.81 L 120.51,27.60 L 119.45,27.78 L 117.53,28.12 L 116.60,28.28 L 114.97,28.57 L 114.18,28.70 L 112.85,28.94 L 112.22,29.05 L 111.21,29.22 L 110.75,29.30 L 110.09,29.42 L 109.50,29.53 L 109.29,29.56 L 108.20,29.76 L 107.55,29.87 L 105.65,30.21 L 104.61,30.39 L 102.00,30.86 L 100.61,31.10 L 97.39,31.67 L 95.72,31.96 L 91.99,32.62 L 90.07,32.96 L 85.94,33.69 L 83.83,34.06 L 79.39,34.84 L 72.50,36.05 L 69.56,36.57 L 64.04,37.54 L 61.34,38.02 L 56.29,38.91 L 53.82,39.34 L 49.23,40.15 L 46.98,40.55 L 42.82,41.28 L 40.79,41.64 L 37.05,42.30 L 35.23,42.63 L 31.90,43.22 L 30.28,43.50 L 27.34,44.03 L 25.92,44.28 L 23.36,44.74 L 22.12,44.96 L 19.92,45.36 L 18.86,45.55 L 17.01,45.88 L 16.12,46.04 L 14.60,46.32 L 13.88,46.45 L 12.68,46.68 L 12.11,46.78 L 11.21,46.95 L 10.79,47.03 L 10.18,47.16 L 9.91,47.21 L 9.56,47.29 L 9.34,47.35 L 9.33,47.36 L 9.42,48.03 L 9.49,48.46 L 9.72,49.92 L 9.85,50.73 L 10.21,52.88 L 10.40,54.03 L 10.87,56.79 L 11.12,58.23 L 11.68,61.51 L 11.97,63.20 L 12.62,66.92 L 12.95,68.82 L 13.65,72.88 L 14.78,79.26 L 15.07,80.93 L 15.62,84.03 L 15.89,85.53 L 16.38,88.31 L 16.62,89.66 L 17.07,92.12 L 17.29,93.32 L 17.70,95.50 L 17.89,96.56 L 18.26,98.46 L 18.44,99.38 L 18.76,101.03 L 19.08,102.62 L 19.63,105.10 L 19.89,106.23 L 20.33,107.89 L 20.55,108.63 L 20.92,109.60 L 21.10,110.01 L 21.44,110.42 L 21.93,110.56 L 22.04,110.53 L 22.96,110.34 L 23.52,110.23 L 25.28,109.90 L 26.26,109.72 L 28.77,109.26 L 30.10,109.01 L 33.25,108.44 L 34.90,108.15 L 38.59,107.49 L 40.50,107.15 L 44.64,106.41 L 46.76,106.03 L 51.24,105.24 L 53.52,104.84 L 58.26,104.01 L 60.65,103.59 L 65.27,102.79 L 67.54,102.40 L 71.85,101.66 L 73.96,101.30 L 77.87,100.65 L 79.77,100.33 L 83.17,99.78 L 84.80,99.51 L 87.61,99.07 L 88.93,98.86 L 91.03,98.55 L 91.99,98.41 L 93.30,98.24 L 94.26,98.16 L 94.43,98.19 L 95.02,98.17 L 95.34,98.14 L 96.16,98.00 L 99.00,97.28 L 99.48,97.12 L 101.15,96.71 L 102.07,96.49 L 104.41,96.01 L 112.50,94.54 L 113.88,94.32 L 117.01,93.81 L 118.62,93.54 L 121.91,92.98 L 123.54,92.70 L 126.60,92.17 L 130.50,91.48 L 133.28,90.97 L 138.55,90.02 L 141.14,89.55 L 146.03,88.67 L 148.42,88.24 L 152.93,87.44 L 155.13,87.05 L 159.24,86.32 L 161.24,85.97 L 164.95,85.33 L 166.76,85.01 L 170.07,84.45 L 171.67,84.18 L 174.57,83.69 L 178.46,83.06 L 179.29,82.93 L 181.30,82.60 L 182.35,82.42 L 184.76,82.01 L 186.00,81.80 L 188.73,81.33 L 190.13,81.09 L 193.11,80.57 L 196.14,80.04 L 202.65,78.89 L 205.92,78.31 L 212.46,77.13 L 215.69,76.55 L 221.68,75.46 L 223.11,75.20 L 225.78,74.70 L 227.07,74.46 L 229.40,74.03 L 230.51,73.82 L 232.42,73.45 L 233.31,73.28 L 234.73,73.00 L 235.37,72.87 L 236.23,72.69 L 236.79,72.54 L 236.84,72.50 L 236.84,71.95 L 236.82,71.61 L 236.72,70.59 L 236.65,70.03 L 236.45,68.65 L 236.07,66.35 L 235.78,64.74 L 235.18,61.34 L 235.04,60.54 L 234.80,59.13 L 234.53,57.50 L 234.47,57.09 L 234.23,55.78 L 234.10,55.07 L 233.76,53.32 L 232.57,47.50 L 232.17,45.57 L 231.34,40.98 L 231.14,39.86 L 230.81,37.77 L 230.44,35.13 L 230.26,33.65 L 229.88,30.56 L 229.79,29.83 L 229.63,28.57 L 229.45,27.13 L 229.41,26.77 L 229.19,25.50 L 229.06,24.79 L 228.72,23.00 L 227.42,16.76 L 227.23,15.89 L 226.90,14.43 L 226.74,13.74 L 226.45,12.62 L 226.31,12.10 L 226.05,11.28 L 225.92,10.91 L 225.66,10.35 L 225.40,9.86 L 224.80,9.48 M 36.05,50.17 L 36.66,50.32 L 36.73,50.40 L 37.04,51.04 L 37.21,51.43 L 37.70,52.64 L 37.96,53.31 L 38.60,55.01 L 38.94,55.92 L 39.70,58.02 L 40.10,59.11 L 40.95,61.54 L 41.39,62.78 L 42.31,65.43 L 43.25,68.12 L 45.19,73.85 L 46.16,76.71 L 47.35,80.29 L 46.91,80.00 L 46.50,80.00 L 45.45,80.27 L 45.07,80.66 L 45.04,80.91 L 45.10,81.42 L 45.30,81.68 L 45.81,82.16 L 46.25,82.34 L 46.93,82.61 L 47.21,82.72 L 47.68,82.90 L 47.75,82.92 L 47.93,82.54 L 47.97,82.18 L 47.99,82.25 L 48.43,83.59 L 49.25,86.12 L 49.65,87.35 L 50.36,89.60 L 50.70,90.69 L 51.28,92.57 L 51.55,93.46 L 51.96,94.89 L 52.14,95.55 L 52.36,96.44 L 52.44,97.09 L 52.37,97.22 L 51.97,97.45 L 51.73,97.55 L 51.08,97.73 L 48.60,98.00 L 47.86,98.00 L 46.80,97.88 L 46.32,97.79 L 45.65,97.35 L 45.34,97.07 L 44.85,96.12 L 44.10,93.92 L 42.87,89.85 L 38.69,90.54 L 37.98,90.66 L 36.82,90.86 L 36.27,90.96 L 35.41,91.16 L 34.61,91.38 L 33.72,92.00 L 33.36,92.38 L 33.09,93.62 L 33.05,93.98 L 33.01,94.89 L 33.00,96.56 L 33.00,97.35 L 32.92,98.59 L 32.87,99.15 L 32.67,99.97 L 32.56,100.32 L 32.23,100.75 L 31.58,101.00 L 28.78,101.53 L 28.40,101.68 L 27.60,101.70 L 27.22,101.67 L 26.70,101.36 L 26.65,101.32 L 26.56,100.72 L 26.51,100.34 L 26.43,99.14 L 26.39,98.47 L 26.31,96.73 L 26.27,95.81 L 26.20,93.60 L 26.17,92.45 L 26.12,89.85 L 26.09,88.51 L 26.06,85.59 L 26.00,75.93 L 26.00,51.19 L 31.06,50.49 L 32.46,50.30 L 34.80,50.15 L 35.30,50.14 M 74.60,43.34 L 74.81,43.51 L 75.19,44.12 L 75.38,44.48 L 75.76,45.61 L 75.96,46.26 L 76.38,48.08 L 76.61,49.08 L 77.13,51.74 L 77.27,52.46 L 77.57,54.10 L 77.72,54.94 L 78.07,56.84 L 78.24,57.83 L 78.63,60.01 L 79.27,63.62 L 79.77,66.46 L 80.71,71.65 L 80.93,72.89 L 81.35,75.18 L 81.56,76.28 L 81.93,78.26 L 82.11,79.21 L 82.42,80.83 L 82.56,81.58 L 82.80,82.78 L 82.91,83.32 L 83.07,84.03 L 83.21,84.51 L 83.25,84.54 L 83.79,84.54 L 84.13,84.53 L 85.17,84.45 L 85.74,84.40 L 87.13,84.24 L 89.47,83.94 L 90.29,83.83 L 91.80,83.63 L 92.53,83.54 L 93.74,83.41 L 94.29,83.35 L 95.07,83.30 L 95.61,83.31 L 95.63,83.33 L 95.72,83.63 L 95.77,83.81 L 95.91,84.35 L 96.43,86.60 L 97.09,89.69 L 90.30,90.82 L 88.43,91.13 L 84.55,91.80 L 83.64,91.96 L 82.06,92.25 L 80.27,92.59 L 79.69,92.71 L 78.76,92.81 L 78.33,92.84 L 77.67,92.77 L 77.37,92.71 L 76.95,92.46 L 76.76,92.31 L 76.55,91.87 L 76.48,91.68 L 76.24,90.63 L 76.11,90.01 L 75.77,88.26 L 75.59,87.32 L 75.20,85.10 L 74.59,81.50 L 74.39,80.26 L 73.89,77.33 L 73.64,75.83 L 73.09,72.65 L 72.82,71.06 L 72.28,68.01 L 71.56,64.00 L 71.13,61.66 L 70.28,56.67 L 70.08,55.50 L 69.75,53.42 L 69.39,51.00 L 69.22,49.76 L 68.81,47.57 L 68.71,47.08 L 68.51,46.33 L 68.26,45.64 L 68.08,45.33 L 68.28,44.71 L 68.46,44.41 L 69.26,43.87 L 69.71,43.62 L 70.94,43.26 L 73.06,43.02 L 73.70,43.01 M 113.53,36.86 L 113.66,36.99 L 113.86,38.00 L 114.00,40.06 L 114.00,40.70 L 113.85,41.59 L 113.72,41.99 L 113.09,42.54 L 112.68,42.79 L 111.25,43.20 L 110.82,43.31 L 109.77,43.52 L 107.86,43.87 L 107.01,44.02 L 105.44,44.33 L 104.68,44.48 L 103.38,44.77 L 102.78,44.91 L 101.91,45.16 L 101.24,45.43 L 101.17,45.49 L 101.16,46.13 L 101.17,46.52 L 101.29,47.69 L 101.36,48.33 L 101.60,49.89 L 102.07,52.48 L 103.38,59.05 L 108.94,58.77 L 109.59,58.74 L 110.67,58.70 L 111.18,58.68 L 112.01,58.68 L 112.78,58.69 L 113.72,58.90 L 114.11,59.04 L 114.51,59.58 L 114.84,60.89 L 114.93,61.57 L 114.75,62.67 L 114.60,63.18 L 113.92,63.95 L 113.52,64.29 L 112.34,64.72 L 110.00,65.00 L 109.40,65.01 L 108.41,65.07 L 107.94,65.12 L 107.20,65.30 L 106.86,65.41 L 106.34,65.76 L 106.11,65.96 L 105.80,66.52 L 105.67,66.84 L 105.54,67.68 L 105.50,68.14 L 105.54,69.30 L 105.57,69.93 L 105.75,71.47 L 106.16,74.26 L 106.28,75.07 L 106.51,76.43 L 106.62,77.07 L 106.82,78.14 L 107.02,79.13 L 107.41,80.34 L 107.61,80.83 L 108.07,81.20 L 108.92,81.06 L 109.14,80.95 L 109.94,80.68 L 110.39,80.55 L 111.54,80.27 L 115.62,79.54 L 116.24,79.46 L 117.27,79.33 L 117.75,79.27 L 118.53,79.20 L 119.26,79.15 L 120.14,79.31 L 120.51,79.44 L 120.94,80.03 L 121.42,81.54 L 121.61,82.28 L 121.73,83.61 L 121.53,84.80 L 121.37,84.96 L 120.32,85.34 L 119.70,85.53 L 117.92,85.94 L 116.97,86.14 L 114.74,86.55 L 113.59,86.75 L 111.18,87.12 L 109.98,87.29 L 107.65,87.57 L 106.53,87.70 L 104.56,87.87 L 103.65,87.93 L 102.32,87.93 L 101.76,87.91 L 101.33,87.72 L 101.15,87.44 L 100.78,86.38 L 100.35,84.60 L 100.31,84.31 L 100.11,83.19 L 100.00,82.56 L 99.71,80.91 L 98.62,75.00 L 98.24,72.94 L 97.47,68.38 L 97.29,67.29 L 96.98,65.34 L 96.64,63.00 L 96.56,62.38 L 96.26,60.54 L 96.10,59.55 L 95.67,57.18 L 94.15,49.50 L 93.97,48.63 L 93.66,47.10 L 93.52,46.37 L 93.30,45.12 L 93.09,43.92 L 92.91,42.23 L 92.86,41.49 L 92.98,40.55 L 93.49,39.78 L 93.69,39.66 L 94.78,39.36 L 95.42,39.20 L 97.21,38.84 L 98.16,38.66 L 100.37,38.28 L 101.50,38.10 L 103.88,37.74 L 105.06,37.57 L 107.34,37.27 L 108.44,37.13 L 110.36,36.93 L 111.25,36.84 L 112.56,36.77 M 32.54,61.46 L 32.43,61.54 L 32.27,62.03 L 32.20,62.32 L 32.11,63.21 L 32.06,63.71 L 32.03,65.00 L 32.02,65.69 L 32.04,67.34 L 32.07,68.21 L 32.15,70.22 L 32.21,71.26 L 32.36,73.59 L 32.65,77.44 L 33.31,85.19 L 36.33,84.58 L 37.16,84.42 L 38.62,84.00 L 38.94,83.90 L 39.44,83.71 L 39.65,83.61 L 39.88,83.45 L 39.92,83.42 L 39.92,83.12 L 39.91,82.94 L 39.81,82.39 L 39.70,81.78 L 39.23,79.96 L 38.97,78.97 L 38.28,76.60 L 37.91,75.38 L 37.09,72.77 L 36.68,71.47 L 35.82,68.91 L 35.40,67.66 L 34.60,65.45 L 34.22,64.42 L 33.58,62.85 L 33.43,62.52 L 33.18,62.01 L 32.89,61.55 L 32.75,61.41 M 141.90,31.56 L 141.99,31.91 L 142.17,33.10 L 142.26,33.77 L 142.43,35.51 L 142.52,36.44 L 142.69,38.63 L 142.77,39.78 L 142.93,42.34 L 143.01,43.65 L 143.16,46.48 L 143.30,49.35 L 143.54,55.51 L 143.65,58.59 L 143.79,64.60 L 143.82,66.06 L 143.85,68.82 L 143.87,70.16 L 143.87,72.62 L 143.87,73.81 L 143.84,75.88 L 143.82,76.86 L 143.75,78.45 L 143.71,79.18 L 143.59,80.19 L 143.37,80.96 L 143.25,81.07 L 142.66,81.33 L 142.31,81.46 L 141.36,81.73 L 137.74,82.45 L 136.81,82.58 L 135.40,82.71 L 134.76,82.75 L 133.85,82.68 L 133.44,82.62 L 132.91,82.33 L 132.68,82.16 L 132.42,81.64 L 131.58,78.83 L 131.50,78.46 L 131.02,77.01 L 130.06,74.50 L 129.89,74.09 L 129.43,72.82 L 129.18,72.13 L 128.61,70.47 L 126.86,65.00 L 126.32,63.21 L 125.20,59.82 L 124.93,59.05 L 124.47,57.79 L 123.94,56.50 L 123.42,55.41 L 122.32,52.61 L 121.79,51.17 L 120.85,48.25 L 120.42,46.84 L 119.86,44.56 L 119.76,44.06 L 119.66,43.31 L 119.71,42.66 L 119.86,42.42 L 119.79,41.84 L 119.21,41.13 L 118.92,40.95 L 118.26,39.87 L 117.47,37.74 L 117.31,37.10 L 117.17,36.24 L 117.14,35.86 L 117.36,35.42 L 117.52,35.23 L 118.20,35.07 L 119.89,35.00 L 120.75,35.00 L 122.25,34.93 L 122.59,34.90 L 123.10,34.85 L 123.56,34.75 L 123.60,34.73 L 123.77,34.98 L 123.86,35.14 L 124.13,35.72 L 124.28,36.05 L 124.64,36.92 L 124.83,37.40 L 125.27,38.54 L 125.72,39.74 L 126.80,42.78 L 128.57,48.00 L 129.18,49.86 L 130.39,53.54 L 130.99,55.35 L 132.08,58.66 L 132.60,60.23 L 133.44,62.78 L 133.63,63.35 L 133.94,64.29 L 134.29,65.33 L 134.64,66.38 L 135.45,68.01 L 135.65,68.35 L 136.01,68.81 L 136.45,69.08 L 136.51,69.07 L 136.62,68.84 L 136.67,68.70 L 136.76,68.20 L 136.85,67.65 L 136.98,65.87 L 137.04,64.88 L 137.10,62.38 L 137.13,61.06 L 137.13,58.07 L 137.12,54.99 L 136.93,48.23 L 136.86,46.56 L 136.69,43.34 L 136.36,38.90 L 136.29,38.11 L 136.18,36.79 L 136.14,36.18 L 136.08,35.18 L 136.04,34.26 L 136.19,33.13 L 136.30,32.66 L 136.82,32.16 L 138.14,31.66 L 138.79,31.49 L 140.14,31.21 L 141.64,31.01 L 141.72,31.01 M 167.05,27.70 L 167.83,27.92 L 168.16,28.07 L 168.52,28.61 L 168.84,29.89 L 168.94,30.64 L 168.78,31.76 L 168.62,32.26 L 167.75,33.00 L 167.47,33.17 L 166.74,33.45 L 166.34,33.59 L 165.35,33.84 L 164.82,33.95 L 163.53,34.17 L 161.24,34.49 L 160.57,34.57 L 159.47,34.72 L 158.95,34.79 L 158.13,34.93 L 157.38,35.07 L 156.58,35.46 L 156.27,35.68 L 156.13,36.39 L 156.36,38.05 L 156.52,38.84 L 156.48,40.25 L 156.44,40.57 L 156.29,41.06 L 155.96,41.52 L 155.67,41.70 L 155.67,42.38 L 156.49,43.64 L 156.91,44.05 L 157.56,45.31 L 158.00,47.21 L 158.00,47.69 L 158.14,48.32 L 158.26,48.59 L 158.83,48.86 L 159.19,48.96 L 160.45,48.93 L 160.82,48.91 L 161.73,48.83 L 163.39,48.64 L 164.11,48.56 L 165.32,48.45 L 165.90,48.42 L 166.84,48.42 L 167.29,48.44 L 168.00,48.57 L 168.33,48.65 L 168.85,48.93 L 169.31,49.25 L 169.77,50.44 L 170.00,53.20 L 170.00,53.61 L 169.89,54.19 L 169.81,54.44 L 169.50,54.73 L 169.31,54.85 L 168.73,54.90 L 167.48,54.75 L 166.78,54.62 L 165.54,54.66 L 164.42,55.13 L 164.27,55.37 L 163.47,55.75 L 161.94,56.00 L 161.37,56.00 L 160.63,56.34 L 160.32,56.60 L 160.09,57.70 L 160.06,58.03 L 160.09,58.91 L 160.12,59.38 L 160.28,60.55 L 160.37,61.18 L 160.63,62.70 L 161.15,65.41 L 162.31,71.15 L 167.40,70.50 L 168.80,70.32 L 171.48,69.91 L 172.09,69.81 L 173.09,69.63 L 174.13,69.40 L 174.42,69.32 L 174.90,69.35 L 175.13,69.40 L 175.50,69.70 L 175.68,69.89 L 175.96,70.49 L 176.30,71.72 L 176.45,72.49 L 176.49,73.88 L 176.17,75.18 L 176.10,75.25 L 175.28,75.51 L 174.77,75.65 L 173.24,76.02 L 172.41,76.21 L 170.41,76.64 L 169.38,76.85 L 167.15,77.30 L 166.03,77.52 L 163.80,77.93 L 162.71,78.13 L 160.72,78.48 L 159.78,78.63 L 158.26,78.85 L 156.77,79.00 L 156.57,79.00 L 156.11,78.34 L 155.89,77.93 L 155.54,76.75 L 155.31,75.67 L 154.81,73.18 L 154.56,71.90 L 154.06,69.15 L 153.56,66.37 L 152.68,60.83 L 152.48,59.50 L 152.14,57.08 L 151.98,55.93 L 151.75,53.98 L 151.65,53.09 L 151.56,51.81 L 151.60,50.83 L 151.76,50.58 L 151.72,49.83 L 151.22,48.71 L 151.09,48.54 L 150.75,47.69 L 150.57,47.19 L 150.19,45.80 L 149.99,45.05 L 149.59,43.31 L 149.04,40.50 L 148.71,38.57 L 148.05,35.08 L 147.90,34.29 L 147.65,33.05 L 147.38,31.87 L 147.29,31.54 L 147.44,31.01 L 147.58,30.76 L 148.29,30.34 L 148.72,30.13 L 150.14,29.74 L 153.22,29.11 L 154.95,28.80 L 158.98,28.24 L 159.95,28.12 L 161.76,27.92 L 164.00,27.74 L 165.02,27.69 L 166.43,27.68 M 64.83,66.89 L 65.21,66.93 L 65.79,67.13 L 66.05,67.25 L 66.42,67.63 L 66.58,67.84 L 66.78,68.41 L 67.00,70.97 L 67.00,71.45 L 66.67,72.18 L 66.42,72.51 L 65.34,73.05 L 65.01,73.17 L 64.15,73.41 L 63.69,73.53 L 62.53,73.77 L 61.91,73.89 L 60.42,74.14 L 57.75,74.54 L 56.59,74.71 L 55.05,74.88 L 54.39,74.93 L 53.64,74.78 L 53.33,74.66 L 53.09,74.08 L 53.01,73.73 L 53.00,72.61 L 53.00,71.89 L 52.97,70.55 L 52.89,69.25 L 52.87,69.15 L 53.36,68.87 L 53.68,68.73 L 54.74,68.40 L 55.33,68.24 L 56.81,67.90 L 59.35,67.42 L 60.22,67.28 L 61.68,67.07 L 62.36,66.98 L 63.48,66.88 L 64.00,66.85 M 180.57,24.23 L 180.59,24.26 L 180.72,24.74 L 180.80,25.05 L 181.02,26.03 L 181.13,26.58 L 181.42,27.99 L 181.57,28.75 L 181.92,30.52 L 182.28,32.36 L 183.12,36.82 L 183.55,39.12 L 184.45,44.06 L 184.90,46.53 L 185.77,51.37 L 186.18,53.73 L 186.90,57.89 L 187.07,58.86 L 187.35,60.58 L 187.49,61.39 L 187.70,62.74 L 187.79,63.36 L 187.92,64.27 L 188.00,65.06 L 188.00,65.23 L 188.45,65.49 L 188.75,65.61 L 189.76,65.76 L 190.34,65.83 L 191.88,65.87 L 194.75,65.81 L 195.59,65.77 L 196.96,65.72 L 197.60,65.69 L 198.63,65.68 L 199.11,65.68 L 199.84,65.73 L 200.18,65.76 L 200.67,65.89 L 201.12,66.04 L 201.52,66.66 L 201.81,68.22 L 201.90,68.96 L 201.87,69.95 L 201.82,70.17 L 201.56,70.54 L 201.40,70.71 L 200.86,71.01 L 200.55,71.16 L 199.64,71.43 L 199.13,71.57 L 197.76,71.86 L 197.02,72.01 L 195.12,72.36 L 191.57,72.97 L 190.51,73.16 L 188.74,73.44 L 187.90,73.58 L 186.52,73.76 L 185.88,73.83 L 184.84,73.90 L 184.36,73.92 L 183.60,73.87 L 182.91,73.78 L 182.15,73.22 L 181.84,72.88 L 181.52,71.75 L 181.44,71.44 L 181.20,70.09 L 181.06,69.31 L 180.71,67.22 L 180.53,66.11 L 180.13,63.56 L 179.51,59.50 L 179.31,58.12 L 178.82,54.99 L 178.56,53.38 L 178.02,50.09 L 177.75,48.46 L 177.22,45.40 L 176.51,41.50 L 176.18,39.74 L 175.63,36.87 L 175.38,35.54 L 175.01,33.44 L 174.85,32.47 L 174.65,30.99 L 174.58,30.31 L 174.57,29.30 L 174.58,28.84 L 174.76,28.16 L 174.87,27.85 L 175.24,27.37 L 177.11,25.92 L 177.94,25.33 L 179.36,24.54 L 179.68,24.39 L 180.15,24.23 M 214.50,19.49 L 215.68,19.81 L 217.51,20.99 L 218.35,21.67 L 219.54,23.59 L 220.67,27.36 L 220.82,28.26 L 220.95,29.46 L 220.98,29.97 L 220.73,30.54 L 220.54,30.77 L 219.72,30.94 L 217.63,31.00 L 216.91,31.00 L 215.85,30.92 L 215.37,30.86 L 214.73,30.62 L 214.46,30.48 L 214.16,30.05 L 214.00,29.12 L 214.00,28.36 L 213.54,27.13 L 213.25,26.58 L 212.33,25.83 L 211.82,25.53 L 210.56,25.36 L 208.47,25.83 L 208.01,26.04 L 207.30,26.52 L 206.98,26.78 L 206.54,27.39 L 206.35,27.72 L 206.12,28.54 L 206.00,30.08 L 206.00,30.95 L 206.62,32.72 L 207.04,33.63 L 208.60,35.60 L 209.06,36.11 L 210.18,37.20 L 210.77,37.76 L 212.18,38.95 L 212.92,39.57 L 214.62,40.88 L 217.54,43.02 L 218.97,44.03 L 221.26,46.18 L 222.31,47.28 L 223.87,49.64 L 224.56,50.86 L 225.41,53.49 L 225.95,57.82 L 225.97,59.15 L 225.74,61.30 L 225.57,62.31 L 224.92,63.92 L 224.54,64.67 L 223.39,65.90 L 221.02,67.49 L 219.87,68.08 L 217.41,68.75 L 216.17,68.99 L 213.68,68.98 L 212.45,68.88 L 210.14,68.20 L 209.02,67.77 L 207.11,66.44 L 206.23,65.70 L 204.84,63.75 L 204.22,62.73 L 203.45,60.60 L 203.15,59.56 L 203.13,57.74 L 203.18,57.33 L 203.45,56.65 L 204.12,55.91 L 204.86,55.43 L 206.24,55.01 L 206.91,54.88 L 208.08,55.12 L 208.64,55.32 L 209.54,56.21 L 210.54,58.25 L 210.77,59.03 L 211.47,60.22 L 211.85,60.75 L 212.77,61.46 L 213.24,61.75 L 214.25,62.01 L 214.76,62.08 L 215.75,61.92 L 216.23,61.78 L 217.10,61.23 L 217.50,60.91 L 218.12,60.00 L 218.39,59.50 L 218.65,58.26 L 218.52,56.08 L 218.35,55.33 L 217.73,53.98 L 217.53,53.64 L 216.99,52.92 L 216.69,52.55 L 215.90,51.73 L 215.47,51.30 L 214.38,50.33 L 213.79,49.82 L 212.33,48.63 L 211.56,48.00 L 209.69,46.55 L 206.35,44.01 L 205.33,43.23 L 203.74,41.87 L 203.02,41.20 L 201.90,39.88 L 201.38,39.20 L 200.57,37.71 L 199.52,35.06 L 199.12,33.85 L 198.67,31.60 L 198.50,30.50 L 198.50,28.48 L 198.56,27.50 L 198.99,25.74 L 199.26,24.90 L 200.11,23.42 L 200.59,22.71 L 201.84,21.54 L 202.51,20.99 L 204.15,20.15 L 205.01,19.78 L 207.01,19.29 L 210.40,19.00 L 211.96,19.00 M 223.18,57.00 L 221.72,57.22 L 220.96,57.55 L 220.72,57.78 L 220.34,58.27 L 220.32,58.54 L 220.43,59.09 L 220.69,59.36 L 221.19,59.79 L 221.45,59.88 L 221.95,59.98 L 222.22,59.92 L 222.76,59.69 L 223.06,59.46 L 223.66,58.90 L 224.00,58.50 L 224.55,57.74 L 224.68,57.39 L 224.63,57.28 L 224.42,57.10 L 224.18,57.06 L 223.61,57.00 M 106.34,22.62 L 105.71,22.89 L 105.55,23.14 L 105.30,23.72 L 105.26,24.15 L 105.24,24.79 L 105.28,25.00 L 105.39,25.35 L 105.51,25.43 L 105.79,25.52 L 106.01,25.47 L 106.49,25.30 L 106.81,25.14 L 108.37,24.66 L 109.41,24.60 L 109.75,24.72 L 110.63,24.72 L 111.00,24.38 L 111.00,24.08 L 110.78,23.28 L 110.46,22.91 L 110.25,22.87 L 107.84,22.55 L 106.71,22.53 Z" fill="rgba(224,4,38,1)"/>
<path d="M 47.56,80.44 L 48.00,81.50 L 48.00,81.91 L 47.93,82.54 L 47.75,82.92 L 47.68,82.90 L 47.21,82.72 L 46.93,82.61 L 46.25,82.34 L 45.81,82.16 L 45.30,81.68 L 45.10,81.42 L 45.04,80.91 L 45.07,80.66 L 45.45,80.27 L 46.50,80.00 L 46.91,80.00 M 107.84,22.55 L 110.25,22.87 L 110.46,22.91 L 110.78,23.28 L 111.00,24.08 L 111.00,24.38 L 110.63,24.72 L 109.75,24.72 L 109.41,24.60 L 108.37,24.66 L 106.81,25.14 L 106.49,25.30 L 106.01,25.47 L 105.79,25.52 L 105.51,25.43 L 105.39,25.35 L 105.28,25.00 L 105.24,24.79 L 105.26,24.15 L 105.30,23.72 L 105.55,23.14 L 105.71,22.89 L 106.34,22.62 L 106.71,22.53 Z" fill="rgba(228,51,76,1)"/>
<path d="M 220.69,59.36 L 220.43,59.09 L 220.32,58.54 L 220.34,58.27 L 220.72,57.78 L 220.96,57.55 L 221.72,57.22 L 223.18,57.00 L 223.61,57.00 L 224.18,57.06 L 224.42,57.10 L 224.63,57.28 L 224.68,57.39 L 224.55,57.74 L 224.00,58.50 L 223.66,58.90 L 223.06,59.46 L 222.76,59.69 L 222.22,59.92 L 221.95,59.98 L 221.45,59.88 L 221.19,59.79 Z" fill="rgba(254,254,254,1)"/>
</g>
</svg>